# Blender 3.6.2
# www.blender.org
mtllib backdropobj.mtl
o Plane
v 23.593449 0.000000 0.000000
v 23.585314 0.000002 10.467411
v 24.480452 0.000000 0.000000
v 23.585314 -0.000002 -10.467411
v 21.908518 0.000000 0.000000
v 21.908518 0.000002 10.805070
v 24.447916 0.000002 9.454436
v 24.447914 -0.000002 -9.454436
v 21.908518 -0.000002 -10.805070
v -10.202703 24.491632 -0.000004
v -10.202703 23.464022 -0.000004
v -10.202703 24.487436 -10.467415
v -10.202703 25.001987 -0.000004
v -10.202703 24.487440 10.467407
v -10.202703 23.464024 10.805066
v -10.202703 23.464022 -10.805074
v -10.202703 24.985201 -9.454440
v -10.202703 24.985209 9.454432
v -6.750016 0.107117 -0.000000
v -6.750016 0.107119 10.805070
v -4.343927 0.000000 0.000000
v -6.750016 0.107115 -10.805070
v -8.309376 0.428469 -0.000000
v -8.309376 0.428470 10.805070
v -4.343927 0.000002 10.805070
v -4.343927 -0.000002 -10.805070
v -8.309376 0.428467 -10.805070
v -10.108037 3.698965 -0.000001
v -9.824038 2.142344 -0.000000
v -10.108037 3.698963 -10.805071
v -10.202703 5.798015 -0.000001
v -10.108037 3.698967 10.805069
v -9.824038 2.142345 10.805070
v -9.824038 2.142342 -10.805070
v -10.202703 5.798013 -10.805071
v -10.202703 5.798017 10.805069
v -10.202703 15.444037 -0.000003
v -10.202703 11.851327 -0.000002
v -10.202703 15.444035 -10.805073
v -10.202703 18.856077 -0.000003
v -10.202703 15.444038 10.805067
v -10.202703 11.851329 10.805068
v -10.202703 11.851325 -10.805072
v -10.202703 18.856075 -10.805073
v -10.202703 18.856079 10.805067
v 9.341468 0.000000 0.000000
v 9.341468 0.000002 10.805070
v 14.614113 0.000000 0.000000
v 9.341468 -0.000002 -10.805070
v 3.944562 0.000000 0.000000
v 3.944562 0.000002 10.805070
v 14.614113 0.000002 10.805070
v 14.614113 -0.000002 -10.805070
v 3.944562 -0.000002 -10.805070
v -9.256040 1.071170 -10.805070
v -9.256041 1.071172 -0.000000
v -9.256040 1.071174 10.805070
v 21.908518 0.000004 21.610140
v 23.569044 0.000003 20.934822
v 24.382845 0.000003 18.908873
v 24.903421 0.000001 8.103803
v 24.968494 0.000000 0.000000
v 24.903421 -0.000001 -8.103803
v -4.343927 -0.000004 -21.610140
v -6.750016 0.107114 -21.610140
v -8.309376 0.428465 -21.610140
v -10.202703 25.220148 -8.103806
v -10.202703 25.253712 -0.000004
v -10.202703 25.220152 8.103799
v -10.202703 23.464018 -21.610144
v -10.202703 24.479042 -20.934826
v -10.202703 24.951637 -18.908876
v -10.202703 5.798018 21.610140
v -10.108037 3.698968 21.610140
v -9.824038 2.142347 21.610140
v -8.309376 0.428472 21.610140
v -6.750016 0.107121 21.610140
v -4.343927 0.000004 21.610140
v 14.614113 -0.000004 -21.610140
v 9.341467 -0.000004 -21.610140
v 3.944562 -0.000004 -21.610140
v -0.857078 0.000002 10.805070
v -0.857078 0.000000 0.000000
v -0.857078 -0.000002 -10.805070
v -9.824038 2.142340 -21.610140
v -10.108037 3.698961 -21.610140
v -10.202703 5.798012 -21.610140
v -10.202703 18.856081 21.610136
v -10.202703 15.444040 21.610138
v -10.202703 11.851331 21.610138
v -10.202703 8.496473 -10.805071
v -10.202703 8.496476 -0.000001
v -10.202703 8.496477 10.805069
v -10.202703 11.851323 -21.610142
v -10.202703 15.444033 -21.610142
v -10.202703 18.856073 -21.610144
v -10.202703 24.951645 18.908869
v -10.202703 24.479050 20.934818
v -10.202703 23.464025 21.610136
v -10.202703 21.668917 -10.805074
v -10.202703 21.668919 -0.000004
v -10.202703 21.668917 10.805066
v 3.944562 0.000004 21.610140
v 9.341467 0.000004 21.610140
v 14.614113 0.000004 21.610140
v 24.382845 -0.000003 -18.908873
v 23.569044 -0.000003 -20.934822
v 21.908518 -0.000004 -21.610140
v 19.042973 0.000002 10.805070
v 19.042973 0.000000 0.000000
v 19.042973 -0.000002 -10.805070
v -9.256040 1.071175 21.610140
v 24.708206 0.000002 14.856971
v -9.256040 1.071168 -21.610140
v 24.708206 -0.000002 -14.856971
v -10.202703 25.119461 14.856967
v -10.202703 25.119457 -14.856975
v -0.857078 0.000004 21.610140
v -0.857078 -0.000004 -21.610140
v -10.202703 8.496471 -21.610142
v -10.202703 8.496479 21.610138
v -10.202703 21.668911 -21.610144
v -10.202703 21.668919 21.610136
v 19.042971 0.000004 21.610140
v 19.042971 -0.000004 -21.610140
vn -0.0000 1.0000 -0.0000
vn 1.0000 -0.0000 -0.0000
vn 0.1235 0.9923 -0.0000
vn 0.3893 0.9211 -0.0000
vn 0.7445 0.6676 -0.0000
vn 0.0222 0.9998 -0.0000
vn 0.9936 0.1125 -0.0000
vn 0.9447 0.3278 -0.0000
vn 0.9997 0.0225 -0.0000
s 1
usemtl BluishGround
f 1//1 5//1 6//1 2//1
f 2//1 6//1 58//1 59//1
f 5//1 110//1 109//1 6//1
f 6//1 109//1 124//1 58//1
f 1//1 2//1 7//1 3//1
f 3//1 7//1 61//1 62//1
f 2//1 59//1 60//1 7//1
f 7//1 60//1 113//1 61//1
f 1//1 3//1 8//1 4//1
f 4//1 8//1 106//1 107//1
f 3//1 62//1 63//1 8//1
f 8//1 63//1 115//1 106//1
f 1//1 4//1 9//1 5//1
f 5//1 9//1 111//1 110//1
f 4//1 107//1 108//1 9//1
f 9//1 108//1 125//1 111//1
f 10//2 14//2 15//2 11//2
f 11//2 15//2 102//2 101//2
f 14//2 98//2 99//2 15//2
f 15//2 99//2 123//2 102//2
f 10//2 11//2 16//2 12//2
f 12//2 16//2 70//2 71//2
f 11//2 101//2 100//2 16//2
f 16//2 100//2 122//2 70//2
f 10//2 12//2 17//2 13//2
f 13//2 17//2 67//2 68//2
f 12//2 71//2 72//2 17//2
f 17//2 72//2 117//2 67//2
f 10//2 13//2 18//2 14//2
f 14//2 18//2 97//2 98//2
f 13//2 68//2 69//2 18//2
f 18//2 69//2 116//2 97//2
f 19//3 23//4 24//4 20//3
f 20//3 24//4 76//4 77//3
f 23//4 56//5 57//5 24//4
f 24//4 57//5 112//5 76//4
f 19//3 20//3 25//6 21//6
f 21//6 25//6 82//1 83//1
f 20//3 77//3 78//6 25//6
f 25//6 78//6 118//1 82//1
f 19//3 21//6 26//6 22//3
f 22//3 26//6 64//6 65//3
f 21//6 83//1 84//1 26//6
f 26//6 84//1 119//1 64//6
f 19//3 22//3 27//4 23//4
f 23//4 27//4 55//5 56//5
f 22//3 65//3 66//4 27//4
f 27//4 66//4 114//5 55//5
f 28//7 32//7 33//8 29//8
f 29//8 33//8 57//5 56//5
f 32//7 74//7 75//8 33//8
f 33//8 75//8 112//5 57//5
f 28//7 29//8 34//8 30//7
f 30//7 34//8 85//8 86//7
f 29//8 56//5 55//5 34//8
f 34//8 55//5 114//5 85//8
f 28//7 30//7 35//9 31//9
f 31//9 35//9 91//2 92//2
f 30//7 86//7 87//9 35//9
f 35//9 87//9 120//2 91//2
f 28//7 31//9 36//9 32//7
f 32//7 36//9 73//9 74//7
f 31//9 92//2 93//2 36//9
f 36//9 93//2 121//2 73//9
f 37//2 41//2 42//2 38//2
f 38//2 42//2 93//2 92//2
f 41//2 89//2 90//2 42//2
f 42//2 90//2 121//2 93//2
f 37//2 38//2 43//2 39//2
f 39//2 43//2 94//2 95//2
f 38//2 92//2 91//2 43//2
f 43//2 91//2 120//2 94//2
f 37//2 39//2 44//2 40//2
f 40//2 44//2 100//2 101//2
f 39//2 95//2 96//2 44//2
f 44//2 96//2 122//2 100//2
f 37//2 40//2 45//2 41//2
f 41//2 45//2 88//2 89//2
f 40//2 101//2 102//2 45//2
f 45//2 102//2 123//2 88//2
f 46//1 50//1 51//1 47//1
f 47//1 51//1 103//1 104//1
f 50//1 83//1 82//1 51//1
f 51//1 82//1 118//1 103//1
f 46//1 47//1 52//1 48//1
f 48//1 52//1 109//1 110//1
f 47//1 104//1 105//1 52//1
f 52//1 105//1 124//1 109//1
f 46//1 48//1 53//1 49//1
f 49//1 53//1 79//1 80//1
f 48//1 110//1 111//1 53//1
f 53//1 111//1 125//1 79//1
f 46//1 49//1 54//1 50//1
f 50//1 54//1 84//1 83//1
f 49//1 80//1 81//1 54//1
f 54//1 81//1 119//1 84//1
