# Blender 3.6.2
# www.blender.org
mtllib spike2.mtl
o Spike
v 0.861940 -1.013857 -0.792136
v 1.117633 -1.014393 0.300026
v 0.338303 -1.013160 1.116578
v -0.789967 -1.014345 0.856140
v -0.051309 6.522521 0.504762
v -1.143069 -1.013468 -0.308431
v -0.246513 -1.014177 -1.143156
v -0.049714 1.284267 -0.659516
v 0.198108 1.272132 0.136868
v -0.438922 1.297974 0.713229
v -1.170332 1.285740 0.450873
v -1.335850 1.274442 -0.274175
v -0.820554 1.288555 -0.823585
v 0.420392 4.480248 -0.086553
v 0.251106 4.564317 0.587769
v -0.272105 4.475121 0.404642
v -0.169814 4.536123 -0.074456
vn 0.9622 0.1580 0.2219
vn -0.3287 -0.0107 0.9444
vn -0.9744 0.1145 -0.1935
vn 0.0068 0.2796 -0.9601
vn -0.7016 0.2907 -0.6506
vn -0.9402 0.2678 0.2105
vn 0.6642 -0.1119 0.7391
vn 0.9509 -0.0866 -0.2972
vn 0.2068 0.1431 -0.9679
vn -0.0001 -1.0000 0.0001
vn -0.6984 -0.0617 -0.7130
vn -0.9595 -0.0985 0.2639
vn -0.2699 0.1002 0.9577
vn 0.6655 0.3282 0.6703
vn 0.9025 0.3589 -0.2382
vn 0.2605 0.1774 -0.9490
vn -0.3404 0.1086 0.9340
vn 0.0013 0.2245 -0.9745
vn -0.9273 0.3410 -0.1546
vn 0.9672 -0.0497 0.2490
vt 0.804841 1.000000
vt 0.559788 0.863947
vt 0.859244 0.863935
vt 0.447247 1.000000
vt 0.335636 0.863977
vt 0.122488 0.863974
vt 0.001384 0.863962
vt 0.049923 0.727772
vt 0.208476 0.727772
vt 0.364761 0.727772
vt 0.708187 0.727772
vt 0.528287 0.727772
vt 0.883733 0.727772
vt 1.000000 0.727772
vt 0.973796 0.189526
vt 0.817397 0.028059
vt 0.593102 0.079052
vt 0.526093 0.310059
vt 0.701466 0.476995
vt 0.921331 0.406515
vt 0.033704 0.500000
vt 0.208293 0.500000
vt 0.381664 0.500000
vt 0.546804 0.500000
vt 0.708005 0.500000
vt 0.867973 0.500000
vt 1.000000 0.500000
s 0
f 5/1/1 15/2/1 14/3/1
f 15/2/2 5/4/2 16/5/2
f 16/5/3 5/4/3 17/6/3
f 17/6/4 5/4/4 14/7/4
f 17/6/5 13/8/5 12/9/5
f 11/10/6 16/5/6 12/9/6
f 9/11/7 15/2/7 10/12/7
f 14/3/8 9/11/8 8/13/8
f 14/3/9 8/13/9 13/14/9
f 2/15/10 3/16/10 4/17/10 6/18/10 7/19/10 1/20/10
f 13/8/11 7/21/11 6/22/11 12/9/11
f 6/22/12 4/23/12 11/10/12 12/9/12
f 4/23/13 3/24/13 10/12/13 11/10/13
f 3/24/14 2/25/14 9/11/14 10/12/14
f 9/11/15 2/25/15 1/26/15 8/13/15
f 8/13/16 1/26/16 7/27/16 13/14/16
f 16/5/17 11/10/17 10/12/17 15/2/17
f 17/6/18 14/7/18 13/8/18
f 12/9/19 16/5/19 17/6/19
f 14/3/20 15/2/20 9/11/20
